<svg id="visual" viewBox="0 0 900 600" width="900" height="600" xmlns="http://www.w3.org/2000/svg" xmlns:xlink="http://www.w3.org/1999/xlink" version="1.1"><rect x="0" y="0" width="900" height="600" fill="#001220"></rect><defs><linearGradient id="grad1_0" x1="33.3%" y1="0%" x2="100%" y2="100%"><stop offset="20%" stop-color="#001220" stop-opacity="1"></stop><stop offset="80%" stop-color="#001220" stop-opacity="1"></stop></linearGradient></defs><defs><linearGradient id="grad2_0" x1="0%" y1="0%" x2="66.7%" y2="100%"><stop offset="20%" stop-color="#001220" stop-opacity="1"></stop><stop offset="80%" stop-color="#001220" stop-opacity="1"></stop></linearGradient></defs><g transform="translate(900, 0)"><path d="M0 486.7C-63.1 479.8 -126.1 472.8 -186.3 449.7C-246.4 426.6 -303.7 387.4 -336.6 336.6C-369.5 285.8 -378.1 223.4 -399.1 165.3C-420.1 107.3 -453.4 53.6 -486.7 0L0 0Z" fill="#FBAE3C"></path></g><g transform="translate(0, 600)"><path d="M0 -486.7C52.2 -454.6 104.4 -422.5 167.6 -404.7C230.9 -386.8 305.2 -383.2 344.2 -344.2C383.2 -305.2 386.8 -230.9 404.7 -167.6C422.5 -104.4 454.6 -52.2 486.7 0L0 0Z" fill="#FBAE3C"></path></g></svg>